<?xml version="1.0" encoding="UTF-8" standalone="no"?>
<svg
   width="256"
   height="256"
   viewBox="0 0 256 256"
   fill="currentColor"
   version="1.1"
   id="svg1"
   sodipodi:docname="bluesky.svg"
   inkscape:version="1.4.4 (dcaf3e7d9e, 2026-05-05)"
   xmlns:inkscape="http://www.inkscape.org/namespaces/inkscape"
   xmlns:sodipodi="http://sodipodi.sourceforge.net/DTD/sodipodi-0.dtd"
   xmlns="http://www.w3.org/2000/svg"
   xmlns:svg="http://www.w3.org/2000/svg">
  <defs
     id="defs1" />
  <sodipodi:namedview
     id="namedview1"
     pagecolor="#ffffff"
     bordercolor="#000000"
     borderopacity="0.25"
     inkscape:showpageshadow="2"
     inkscape:pageopacity="0.0"
     inkscape:pagecheckerboard="0"
     inkscape:deskcolor="#d1d1d1"
     inkscape:zoom="1.2269231"
     inkscape:cx="295.04702"
     inkscape:cy="127.96238"
     inkscape:window-width="1536"
     inkscape:window-height="891"
     inkscape:window-x="0"
     inkscape:window-y="0"
     inkscape:window-maximized="1"
     inkscape:current-layer="svg1" />
  <path
     d="m 60.138836,37.291919 c 27.807978,20.876476 57.718624,63.205271 68.700294,85.921361 10.98251,-22.71442 40.89147,-65.045307 68.70029,-85.921361 20.06478,-15.063631 52.57489,-26.719017 52.57489,10.369026 0,7.406988 -4.24672,62.222525 -6.73746,71.121615 -8.65781,30.93939 -40.20649,38.83064 -68.26957,34.05449 49.05372,8.34874 61.53251,36.00283 34.58309,63.65692 -51.18231,52.52051 -73.56386,-13.1776 -79.30144,-30.01184 -1.05132,-3.08613 -1.54327,-4.52983 -1.55051,-3.3022 -0.008,-1.22769 -0.49919,0.21607 -1.55051,3.3022 -5.73507,16.83424 -28.116195,82.53403 -79.301434,30.01184 C 21.036628,188.83988 33.515002,161.18412 82.569568,152.83705 54.50565,157.6132 22.956536,149.7219 14.299998,118.78256 11.80918,109.88262 7.5625379,55.067093 7.5625379,47.660945 c 0,-37.088043 32.5109501,-25.432657 52.5748801,-10.369026 z"
     id="path1"
     style="stroke-width:0.41819" />
</svg>
