<svg xmlns="http://www.w3.org/2000/svg" width="1em" height="1em" fill="currentColor" viewBox="0 0 256 256"><path d="M128 0A127.999 128 0 0 0 27.234 49.316c15.612 4.171 26.662 7.756 29.972 8.868.052-2.03.388-20.191.388-20.191s.043-.416.265-.633c.286-.279.699-.194.699-.194 4.106.594 91.754 13.586 128.698 35.115 4.562 2.669 6.814 5.507 9.628 8.384 10.212 10.562 23.706 54.48 25.156 63.537.057.355-.383.742-.57.888h-.006a55.229 55.229 0 0 1-3.336 2.431c-8.742 5.865-28.88 19.963-54.719 17.661-23.209-2.053-53.53-15.366-90.085-39.452 3.594 8.415 7.135 16.856 10.678 25.293 5.294 2.75 56.389 28.786 81.607 28.277 20.311-.423 42.034-10.33 50.725-15.56 0 0 1.91-1.151 2.74-.51.91.703.658 1.78.443 2.878-.535 2.495-1.752 7.046-2.58 9.207l-.698 1.76c-.995 2.666-1.95 5.144-3.791 6.67-5.12 4.654-13.29 8.358-26.095 13.923-19.79 8.657-51.899 14.163-81.71 13.973-10.677-.238-20.992-1.422-30.05-2.48-18.589-2.099-33.714-3.802-42.937 2.869A127.999 128 0 0 0 128.001 256 127.999 128 0 0 0 256 128 127.999 128 0 0 0 128 0Zm28.55 74.27c-10.018-.32-19.571 3.216-26.895 10.054-7.321 6.815-11.51 16.107-11.882 26.12-.692 20.654 15.524 38.057 36.16 38.818 10.065.338 19.598-3.2 26.922-10.079 7.302-6.794 11.492-16.086 11.881-26.098.71-20.637-15.526-38.077-36.185-38.815zm-.313 11.046c14.437.512 25.74 12.64 25.255 27.074-.223 6.96-3.16 13.413-8.26 18.198-5.108 4.763-11.785 7.24-18.79 7.028-14.404-.531-25.708-12.674-25.222-27.11.212-6.988 3.207-13.44 8.285-18.204 5.078-4.762 11.723-7.239 18.732-6.986zm4.278 13.126c-6.415 0-11.596 3.452-11.596 7.747 0 4.254 5.181 7.727 11.596 7.727 6.411 0 11.613-3.473 11.613-7.727 0-4.295-5.198-7.747-11.613-7.747z" style="stroke-width:1.14286"/></svg>
