<svg xmlns="http://www.w3.org/2000/svg" width="1em" height="1em" viewBox="0 0 12 12" fill="currentColor" fill-rule="evenodd" clip-rule="evenodd" image-rendering="optimizeQuality" shape-rendering="geometricPrecision" text-rendering="geometricPrecision"><path d="M11.5856 2.6567C11.412 1.3674 10.2884.3512 8.9562.1544 8.7315.121 7.88 0 5.9074 0h-.0147C3.9196 0 3.4963.121 3.2716.1543 1.9765.3458.7938 1.2588.5069 2.5633.3689 3.206.354 3.9184.3798 4.5717c.0365.937.0436 1.8724.1288 2.8056.0588.6199.1614 1.2349.307 1.8403.2728 1.118 1.3769 2.0484 2.4587 2.4281a6.5946 6.5946 0 0 0 3.597.1898 5.255 5.255 0 0 0 .389-.1064c.2901-.0922.63-.1952.8799-.3763a.028.028 0 0 0 .0114-.0218v-.9043a.0274.0274 0 0 0-.0329-.0257 9.9685 9.9685 0 0 1-2.3343.2728c-1.3528 0-1.7167-.642-1.8208-.9092a2.8165 2.8165 0 0 1-.1583-.7167.0294.0294 0 0 1 .002-.012.0244.0244 0 0 1 .0183-.015.027.027 0 0 1 .0122.0002 9.7795 9.7795 0 0 0 2.296.2728c.186 0 .3716 0 .5576-.005.7778-.0218 1.5978-.0616 2.363-.2111.0192-.004.0383-.007.0547-.012 1.2072-.2318 2.356-.9594 2.4728-2.8018.004-.0726.0153-.7597.0153-.835.0005-.2558.0823-1.8146-.012-2.7723zM9.673 4.1053v3.2032H8.4037V4.1996c0-.6544-.2728-.9883-.8276-.9883-.61 0-.9154.395-.9154 1.1748V6.088H5.399V4.386c0-.7798-.306-1.1747-.916-1.1747-.5514 0-.8269.3338-.8269.9883v3.1088H2.3873V4.1053c0-.6545.167-1.1744.5013-1.5599.3447-.3845.797-.582 1.3583-.582.6496 0 1.1406.2499 1.4679.7489l.3159.5302.3164-.5302c.3273-.499.8183-.7488 1.4668-.7488.5608 0 1.013.1974 1.3589.582.3339.385.5006.905.5003 1.5598z" style="stroke-width:.0415251"/></svg>
