<svg width="1em" height="1em" fill="currentColor" version="1.1" viewBox="0 0 16 16" xmlns="http://www.w3.org/2000/svg">
 <path d="m8.0061 3c-2.5843 0-4.7182 1.9766-4.9702 4.496h-2.5231a0.49961 0.49961 0 1 0 0 0.99911h2.5231c0.25199 2.5194 2.3859 4.496 4.9702 4.496 2.5843 0 4.7182-1.9766 4.9702-4.496h2.5231a0.49961 0.49961 0 1 0 0-0.99911h-2.5231c-0.25199-2.5194-2.3859-4.496-4.9702-4.496zm0 0.99911c2.1964 0 3.966 1.7577 3.9926 3.9477a0.49961 0.49961 0 0 0 0 0.09562c-0.02555 2.1909-1.7955 3.9496-3.9926 3.9496-2.1964 0-3.966-1.7577-3.9925-3.9477a0.49961 0.49961 0 0 0 0-0.09561c0.025548-2.1909 1.7955-3.9496 3.9925-3.9496zm0 1.9982c-1.0976 0-1.9982 0.90057-1.9982 1.9982s0.90057 1.9982 1.9982 1.9982 1.9982-0.90057 1.9982-1.9982-0.90057-1.9982-1.9982-1.9982zm0 0.99911c0.55771 0 0.99911 0.4414 0.99911 0.99911s-0.4414 0.99911-0.99911 0.99911-0.99911-0.4414-0.99911-0.99911 0.4414-0.99911 0.99911-0.99911z"/>
</svg>
