<?xml version="1.0" encoding="UTF-8" standalone="no"?>
<svg
   width="1em"
   height="1em"
   fill="currentColor"
   version="1.1"
   viewBox="0 0 16 16"
   id="svg4"
   sodipodi:docname="microosmini.svg"
   inkscape:version="1.2.2 (b0a8486541, 2022-12-01)"
   xmlns:inkscape="http://www.inkscape.org/namespaces/inkscape"
   xmlns:sodipodi="http://sodipodi.sourceforge.net/DTD/sodipodi-0.dtd"
   xmlns="http://www.w3.org/2000/svg"
   xmlns:svg="http://www.w3.org/2000/svg">
  <defs
     id="defs8">
    <clipPath
       clipPathUnits="userSpaceOnUse"
       id="clipPath536">
      <g
         id="g540"
         transform="translate(-262.6839,-162.7228)">
        <path
           d="M 0,200.303 H 320 V 0 H 0 Z"
           id="path538"
           inkscape:connector-curvature="0" />
      </g>
    </clipPath>
  </defs>
  <sodipodi:namedview
     id="namedview6"
     pagecolor="#505050"
     bordercolor="#eeeeee"
     borderopacity="1"
     inkscape:showpageshadow="0"
     inkscape:pageopacity="0"
     inkscape:pagecheckerboard="0"
     inkscape:deskcolor="#505050"
     showgrid="false"
     inkscape:zoom="17.191499"
     inkscape:cx="10.615712"
     inkscape:cy="11.16831"
     inkscape:window-width="1920"
     inkscape:window-height="1011"
     inkscape:window-x="0"
     inkscape:window-y="0"
     inkscape:window-maximized="1"
     inkscape:current-layer="svg4" />
  <g
     id="g20"
     transform="matrix(0.0495171,0,0,-0.0495171,13.154088,6.1436109)"
     style="fill:#000000"
     clip-path="url(#clipPath536)">
    <path
       d="m 0,0 c 0.175,4.73 2.156,9.12 5.614,12.34 3.46,3.231 7.975,4.9 12.708,4.75 9.761,-0.349 17.43,-8.589 17.095,-18.339 -0.184,-4.73 -2.164,-9.12 -5.614,-12.329 -3.46,-3.25 -7.964,-4.92 -12.719,-4.76 C 7.335,-17.979 -0.326,-9.758 0,0 Z m 47.347,-17.439 c 0.805,0.532 1.396,0.972 1.645,1.07 l 0.269,0.419 c -0.681,4.28 -7.06,25.03 -11.885,30.019 -1.329,1.36 -2.394,2.7 -4.549,3.961 -17.455,10.17 -58.863,16.309 -60.803,16.589 l -0.33,-0.091 -0.124,-0.3 c 0,0 -0.16,-8.58 -0.184,-9.539 -4.229,1.421 -34.972,11.351 -63.791,12.351 -24.44,0.859 -60.033,4.02 -107.196,-24.981 l -1.395,-0.868 c -22.189,-13.841 -37.509,-30.91 -45.517,-50.739 -2.512,-6.24 -5.89,-20.32 -2.542,-33.569 1.442,-5.791 4.131,-11.61 7.756,-16.819 8.194,-11.77 21.944,-19.58 36.748,-20.899 20.905,-1.87 36.733,7.519 42.363,25.1 3.871,12.129 0,29.927 -14.839,39.007 -12.07,7.391 -25.049,5.711 -32.578,0.73 -6.532,-4.331 -10.231,-11.06 -10.166,-18.451 0.151,-13.11 11.444,-20.078 19.565,-20.099 2.359,0 4.728,0.41 7.399,1.28 0.951,0.29 1.845,0.649 2.831,1.259 l 0.309,0.181 0.194,0.13 -0.065,-0.039 c 1.851,1.261 2.964,3.312 2.964,5.511 0,0.6 -0.084,1.208 -0.256,1.82 -0.959,3.32 -4.239,5.329 -7.638,4.71 l -0.459,-0.109 -0.621,-0.19 -0.901,-0.31 c -1.87,-0.46 -3.27,-0.5 -3.569,-0.51 -0.951,0.061 -5.625,1.461 -5.625,6.58 v 0.07 c 0,1.88 0.754,3.199 1.17,3.92 1.454,2.28 5.435,4.518 10.814,4.05 7.059,-0.611 12.149,-4.231 15.52,-11.06 3.129,-6.349 2.31,-14.159 -2.11,-19.88 -4.39,-5.669 -12.205,-8.078 -22.598,-6.959 -10.481,1.159 -19.34,7.19 -24.304,16.579 -4.856,9.178 -5.121,20.059 -0.685,28.418 10.609,20.029 30.648,19.82 41.636,17.921 16.26,-2.821 34.758,-17.82 41.319,-35.139 1.06,-2.761 1.6,-4.949 2.072,-6.951 l 0.708,-2.99 18.37,-8.969 0.24,-0.181 0.446,0.041 0.081,0.529 c -0.114,0.411 -0.381,0.789 -0.805,5.93 -0.349,4.562 -1.06,17.051 5.228,23.24 2.441,2.419 6.161,4.578 9.099,5.269 12.04,2.941 26.159,0.912 39.507,-14.539 6.911,-7.981 10.28,-11.62 11.97,-13.249 l 0.59,-0.532 0.694,-0.519 c 0.554,-0.301 22.955,-10.621 22.955,-10.621 l 0.461,0.11 0.009,0.479 c -0.149,0.17 -14.199,18.328 -11.698,33.28 1.969,11.908 11.447,10.83 24.557,9.35 4.28,-0.5 9.152,-1.06 14.196,-1.172 14.083,-0.089 29.254,2.511 38.604,6.601 6.049,2.63 9.909,4.38 12.328,6.579 0.87,0.721 1.32,1.891 1.791,3.15 l 0.329,0.831 c 0.391,1.021 0.967,3.171 1.219,4.35 0.102,0.519 0.162,1.068 -0.209,1.359 l -1.294,-0.24 c -4.106,-2.471 -14.369,-7.15 -23.965,-7.35 -11.914,-0.241 -35.898,11.98 -38.398,13.28 l -0.241,0.279 c -0.589,1.44 -4.19,9.949 -4.96,11.749 17.27,-11.379 31.594,-17.669 42.559,-18.639 12.207,-1.087 21.722,5.574 25.786,8.422 z M 20.194,-1.64 c -3.031,0 -5.479,1.64 -5.479,3.65 0,2.029 2.448,3.66 5.479,3.66 3.031,0 5.486,-1.631 5.486,-3.66 C 25.678,0 23.223,-1.64 20.194,-1.64 M 18.173,11.872 C 14.862,11.991 11.723,10.821 9.323,8.571 6.924,6.321 5.509,3.273 5.409,-0.028 c -0.23,-6.821 5.111,-12.559 11.916,-12.81 3.309,-0.1 6.464,1.07 8.878,3.32 2.409,2.261 3.795,5.311 3.9,8.599 0.23,6.819 -5.109,12.549 -11.93,12.791 z"
       style="fill:#000000;fill-opacity:1;fill-rule:nonzero;stroke:none"
       id="path22"
       inkscape:connector-curvature="0" />
  </g>
</svg>
