<svg width="1em" height="1em" viewBox="0 0 16 16" fill="currentColor" xmlns="http://www.w3.org/2000/svg"><path d="m 15.135036,0.00147914 c -0.01565,2.1e-5 -0.03132,4.44e-4 -0.04702,0.0013 -0.08366,0.0047 -0.167707,0.02177 -0.249133,0.05288 -7.1e-5,2.7e-5 -1.43e-4,4.3e-5 -2.14e-4,7.2e-5 L 0.55255496,5.4627331 a 0.57157718,0.57157718 0 0 0 -0.0024,9.07e-4 c -0.348213,0.133597 -0.557341,0.492923 -0.54996299977,0.819746 0.0074,0.326824 0.23249399977,0.676327 0.58638099977,0.794073 l -0.03433,-0.01263 5.93279904,2.405379 a 0.57157718,0.57157718 0 0 0 0.0337,0.01249 0.57157718,0.57157718 0 0 0 0.01256,0.03391 l 2.407542,5.9327289 -0.01074,-0.0286 c 0.120467,0.349349 0.46672,0.570238 0.791072,0.57759 0.324353,0.0074 0.680155,-0.197641 0.816328,-0.541172 a 0.57157718,0.57157718 0 0 0 0.0032,-0.0083 l 5.406976,-14.2861169 7.1e-5,-2.11e-4 c 0.124551,-0.32591496 0.02418,-0.69350296 -0.194576,-0.91225496 -0.153843,-0.153844 -0.381304,-0.249097 -0.6161,-0.248785 z M 13.352873,1.8402221 6.820368,8.3727271 1.641178,6.2728511 Z M 14.161178,2.6485271 9.729456,14.357781 7.628673,9.1810321 Z"/></svg>
