<?xml version="1.0" encoding="UTF-8"?>
<!-- Created with Inkscape (http://www.inkscape.org/) -->
<svg width="1920" height="1080" version="1.1" viewBox="0 0 1920 1080" xmlns="http://www.w3.org/2000/svg" xmlns:xlink="http://www.w3.org/1999/xlink">
 <defs>
  <clipPath id="clipPath1681">
   <circle cx="1359.9" cy="350.8" r="72" fill="#fff"/>
  </clipPath>
 </defs>
 <rect width="1920" height="1080"/>
 <circle id="path363" cx="472.56" cy="399.24" r=".5" fill="#fff"/>
 <use transform="matrix(.19546 -.02524 .02524 .19546 213.84 579.25)" xlink:href="#path363"/>
 <use transform="matrix(1.687 -.083703 .083703 1.687 -508.19 -67.052)" xlink:href="#path363"/>
 <use transform="matrix(.95766 .098337 -.098337 .95766 -43.491 105.96)" xlink:href="#path363"/>
 <use transform="matrix(.68329 -.076293 .076293 .68329 529.09 182.89)" xlink:href="#path363"/>
 <use transform="matrix(.84415 -.04682 .04682 .84415 927.65 -57.333)" xlink:href="#path363"/>
 <use transform="matrix(.80943 .10678 -.10678 .80943 1184.2 -240.69)" xlink:href="#path363"/>
 <use transform="matrix(1.2395 .012397 -.012397 1.2395 888.58 -386.96)" xlink:href="#path363"/>
 <use transform="matrix(1.5311 .42593 -.42593 1.5311 176.6 -578.71)" xlink:href="#path363"/>
 <use transform="matrix(.86901 .1834 -.1834 .86901 619.24 -8.7671)" xlink:href="#path363"/>
 <use transform="matrix(.69149 -.14983 .14983 .69149 354.97 248.14)" xlink:href="#path363"/>
 <use transform="matrix(1.4405 -.6473 .6473 1.4405 -236.91 246.72)" xlink:href="#path363"/>
 <use transform="matrix(1.7084 -.18725 .18725 1.7084 -276.98 -33.713)" xlink:href="#path363"/>
 <use transform="matrix(1.3654 .42922 -.42922 1.3654 174.75 -176.96)" xlink:href="#path363"/>
 <use transform="matrix(.6008 .040034 -.040034 .6008 512.3 109.35)" xlink:href="#path363"/>
 <use transform="matrix(1.9592 .065931 -.065931 1.9592 307.6 -523.58)" xlink:href="#path363"/>
 <use transform="matrix(1.3596 -.25685 .25685 1.3596 571.38 -248.18)" xlink:href="#path363"/>
 <use transform="matrix(.25039 -.077524 .077524 .25039 1636.2 154.85)" xlink:href="#path363"/>
 <use transform="matrix(.034921 -.0026956 .0026956 .034921 1809.5 158.05)" xlink:href="#path363"/>
 <use transform="matrix(.44852 -.09799 .09799 .44852 1553.4 111.81)" xlink:href="#path363"/>
 <use transform="matrix(.46027 -.12262 .12262 .46027 1592.7 75.409)" xlink:href="#path363"/>
 <use transform="matrix(.75309 .030973 -.030973 .75309 1483.3 -150.65)" xlink:href="#path363"/>
 <use transform="matrix(1.1767 -.35695 .35695 1.1767 151.08 169.05)" xlink:href="#path363"/>
 <use transform="matrix(.26083 .027229 -.027229 .26083 -47.439 502.29)" xlink:href="#path363"/>
 <use transform="matrix(.48382 -.071825 .071825 .48382 -257.87 242)" xlink:href="#path363"/>
 <use transform="matrix(1.1524 .030653 -.030653 1.1524 -485.37 -58.802)" xlink:href="#path363"/>
 <use transform="matrix(.68774 -.13673 .13673 .68774 -97.377 -18.311)" xlink:href="#path363"/>
 <use transform="matrix(1.3172 .22512 -.22512 1.3172 -154.17 -356.76)" xlink:href="#path363"/>
 <use transform="matrix(1.5726 .61465 -.61465 1.5726 294.12 -677.52)" xlink:href="#path363"/>
 <use transform="matrix(1.8479 -.33816 .33816 1.8479 -616.11 -362.01)" xlink:href="#path363"/>
 <use transform="matrix(.2358 .065991 -.065991 .2358 322.61 128.59)" xlink:href="#path363"/>
 <use transform="matrix(.049731 -.0059924 .0059924 .049731 903.72 233.01)" xlink:href="#path363"/>
 <use transform="matrix(1.1998 .34126 -.34126 1.1998 904.55 -298.67)" xlink:href="#path363"/>
 <use transform="matrix(1.2147 .54127 -.54127 1.2147 249.1 2.5898)" xlink:href="#path363"/>
 <use transform="matrix(1.6595 -.016997 .016997 1.6595 -238.96 167.03)" xlink:href="#path363"/>
 <use transform="matrix(1.661 .7793 -.7793 1.661 -39.388 -147.62)" xlink:href="#path363"/>
 <use transform="matrix(1.2966 .30154 -.30154 1.2966 -24.248 182)" xlink:href="#path363"/>
 <use transform="matrix(.70308 .27676 -.27676 .70308 937.68 10.043)" xlink:href="#path363"/>
 <use transform="matrix(.45485 -.024716 .024716 .45485 822.32 287.95)" xlink:href="#path363"/>
 <use transform="matrix(1.7743 -.37354 .37354 1.7743 44.075 4.6041)" xlink:href="#path363"/>
 <use transform="matrix(.41585 .032032 -.032032 .41585 241.15 687.67)" xlink:href="#path363"/>
 <use transform="matrix(.28442 -.040365 .040365 .28442 174.61 765.19)" xlink:href="#path363"/>
 <use transform="matrix(.50832 -.048715 .048715 .50832 -5.5723 625.76)" xlink:href="#path363"/>
 <use transform="matrix(.80401 .36474 -.36474 .80401 456.89 -272.68)" xlink:href="#path363"/>
 <use transform="matrix(1.2277 -.38346 .38346 1.2277 144.45 -106.76)" xlink:href="#path363"/>
 <use transform="matrix(1.6515 .18012 -.18012 1.6515 742.99 -712.68)" xlink:href="#path363"/>
 <use transform="matrix(.79273 -.36586 .36586 .79273 905.54 -113.14)" xlink:href="#path363"/>
 <use transform="matrix(1.9639 .2981 -.2981 1.9639 617.25 -813.93)" xlink:href="#path363"/>
 <use transform="matrix(1.5158 .44365 -.44365 1.5158 446.56 -689.88)" xlink:href="#path363"/>
 <use transform="matrix(1.0273 .27796 -.27796 1.0273 221.72 -308.3)" xlink:href="#path363"/>
 <use transform="matrix(1.4628 -.63481 .63481 1.4628 -355.89 -59.137)" xlink:href="#path363"/>
 <use transform="matrix(.59638 -.16141 .16141 .59638 215.04 17.725)" xlink:href="#path363"/>
 <use transform="matrix(.16153 -.074287 .074287 .16153 647.97 189.91)" xlink:href="#path363"/>
 <use transform="matrix(1.2873 -.18188 .18188 1.2873 165.14 -135.76)" xlink:href="#path363"/>
 <use transform="matrix(1.4061 -.54925 .54925 1.4061 889.9 44.847)" xlink:href="#path363"/>
 <use transform="matrix(.66418 -.032624 .032624 .66418 1172.7 323.34)" xlink:href="#path363"/>
 <use transform="matrix(.17809 .02404 -.02404 .17809 1144.7 497.31)" xlink:href="#path363"/>
 <use transform="matrix(.1565 -.02908 .02908 .1565 1049.5 623.3)" xlink:href="#path363"/>
 <use transform="matrix(.56656 .017131 -.017131 .56656 767.75 472.59)" xlink:href="#path363"/>
 <use transform="matrix(1.7072 -.71614 .71614 1.7072 -587.63 595.89)" xlink:href="#path363"/>
 <use transform="matrix(1.6722 -.69482 .69482 1.6722 -746.39 660.6)" xlink:href="#path363"/>
 <use transform="matrix(.95407 -.23082 .23082 .95407 -227.57 671.74)" xlink:href="#path363"/>
 <use transform="matrix(1.8648 .67599 -.67599 1.8648 -9.5527 -567.44)" xlink:href="#path363"/>
 <use transform="matrix(.50107 .011316 -.011316 .50107 415.65 222.3)" xlink:href="#path363"/>
 <use transform="matrix(1.1586 -.090081 .090081 1.1586 489.38 42.256)" xlink:href="#path363"/>
 <use transform="matrix(.44594 .071199 -.071199 .44594 965.66 319.45)" xlink:href="#path363"/>
 <use transform="matrix(.27199 -.10356 .10356 .27199 968.34 455.02)" xlink:href="#path363"/>
 <use transform="matrix(.62607 .15985 -.15985 .62607 716.01 411.08)" xlink:href="#path363"/>
 <use transform="matrix(.19052 .032149 -.032149 .19052 982.3 634.47)" xlink:href="#path363"/>
 <use transform="matrix(.47302 -.087438 .087438 .47302 888.54 667.69)" xlink:href="#path363"/>
 <use transform="matrix(.59485 .19279 -.19279 .59485 1262.8 504.78)" xlink:href="#path363"/>
 <use transform="matrix(1.7463 .78176 -.78176 1.7463 916.72 -184.16)" xlink:href="#path363"/>
 <use transform="matrix(.56477 -.075003 .075003 .56477 1036.2 640.97)" xlink:href="#path363"/>
 <use transform="matrix(1.7966 .83743 -.83743 1.7966 124.3 -280.39)" xlink:href="#path363"/>
 <use transform="matrix(1.3477 .33799 -.33799 1.3477 67.791 78.559)" xlink:href="#path363"/>
 <use transform="matrix(1.5676 -.23195 .23195 1.5676 -302.96 278.49)" xlink:href="#path363"/>
 <use transform="matrix(.011759 -.004094 .004094 .011759 1350.8 614.55)" xlink:href="#path363"/>
 <use transform="matrix(.66616 .0070675 -.0070675 .66616 -82.223 -10.789)" xlink:href="#path363"/>
 <use transform="matrix(.86027 .14847 -.14847 .86027 -153.74 -173.25)" xlink:href="#path363"/>
 <use transform="matrix(.047971 -.00088467 .00088467 .047971 998.15 485.62)" xlink:href="#path363"/>
 <use transform="matrix(.9946 -.018789 .018789 .9946 243.24 316.63)" xlink:href="#path363"/>
 <use transform="matrix(1.4705 .16466 -.16466 1.4705 -128.01 -3.6154)" xlink:href="#path363"/>
 <use transform="matrix(.52515 .14647 -.14647 .52515 440.24 315.87)" xlink:href="#path363"/>
 <use transform="matrix(.64299 .24193 -.24193 .64299 418.67 279.26)" xlink:href="#path363"/>
 <use transform="matrix(.82247 .26387 -.26387 .82247 342.58 195.92)" xlink:href="#path363"/>
 <use transform="matrix(.32495 -.1449 .1449 .32495 356.09 670.58)" xlink:href="#path363"/>
 <use transform="matrix(.47385 .080454 -.080454 .47385 312.83 570.9)" xlink:href="#path363"/>
 <use transform="matrix(1.6017 .56896 -.56896 1.6017 375.32 -636.88)" xlink:href="#path363"/>
 <use transform="matrix(.74658 .27738 -.27738 .74658 1070.5 -61.372)" xlink:href="#path363"/>
 <use transform="matrix(.38011 .15548 -.15548 .38011 1153.2 143.69)" xlink:href="#path363"/>
 <use transform="matrix(.90902 .043945 -.043945 .90902 925.16 -6.8822)" xlink:href="#path363"/>
 <use transform="matrix(.63064 -.040574 .040574 .63064 875.36 255.14)" xlink:href="#path363"/>
 <use transform="matrix(1.2051 -.31172 .31172 1.2051 330.66 171.17)" xlink:href="#path363"/>
 <use transform="matrix(1.5524 .47726 -.47726 1.5524 -508.23 237.79)" xlink:href="#path363"/>
 <use transform="matrix(1.5618 -.65743 .65743 1.5618 -852.04 784.99)" xlink:href="#path363"/>
 <use transform="matrix(1.826 -.29477 .29477 1.826 -827.95 525.11)" xlink:href="#path363"/>
 <use transform="matrix(1.782 .4027 -.4027 1.782 373.17 -406.22)" xlink:href="#path363"/>
 <use transform="matrix(1.8541 .1121 -.1121 1.8541 -123.74 -285.63)" xlink:href="#path363"/>
 <use transform="matrix(1.1026 -.078171 .078171 1.1026 325.11 63.003)" xlink:href="#path363"/>
 <use transform="matrix(.23285 .0713 -.0713 .23285 678.3 359.7)" xlink:href="#path363"/>
 <use transform="matrix(1.3114 .095961 -.095961 1.3114 181.58 -45.814)" xlink:href="#path363"/>
 <use transform="matrix(1.3708 -.16297 .16297 1.3708 -692.69 206.12)" xlink:href="#path363"/>
 <use transform="matrix(1.7724 -.56475 .56475 1.7724 -1032.8 217.19)" xlink:href="#path363"/>
 <use transform="matrix(.62775 -.028246 .028246 .62775 -287.95 486.93)" xlink:href="#path363"/>
 <use transform="matrix(1.5273 -.50627 .50627 1.5273 -479 214.76)" xlink:href="#path363"/>
 <use transform="matrix(1.0071 -.15944 .15944 1.0071 280.98 204.89)" xlink:href="#path363"/>
 <use transform="matrix(.24749 .054931 -.054931 .24749 1123.7 399.47)" xlink:href="#path363"/>
 <use transform="matrix(1.3572 .5616 -.5616 1.3572 861.68 -285.32)" xlink:href="#path363"/>
 <use transform="matrix(.19334 -.032885 .032885 .19334 759.99 463.17)" xlink:href="#path363"/>
 <use transform="matrix(.29604 -.020076 .020076 .29604 1051.2 470.86)" xlink:href="#path363"/>
 <use transform="matrix(1.6336 -.086328 .086328 1.6336 506.81 22.24)" xlink:href="#path363"/>
 <use transform="matrix(.65287 -.18407 .18407 .65287 848.26 528.06)" xlink:href="#path363"/>
 <use transform="matrix(1.7804 -.14899 .14899 1.7804 -208.22 153.4)" xlink:href="#path363"/>
 <use transform="matrix(1.1744 -.18607 .18607 1.1744 556.4 -342.05)" xlink:href="#path363"/>
 <use transform="matrix(.16509 .022752 -.022752 .16509 1599.9 86.811)" xlink:href="#path363"/>
 <use transform="matrix(1.5068 -.40846 .40846 1.5068 907.1 -157.35)" xlink:href="#path363"/>
 <use transform="matrix(1.4028 .34011 -.34011 1.4028 1240.9 -478.11)" xlink:href="#path363"/>
 <use transform="matrix(1.1993 -.11269 .11269 1.1993 -118.47 95.549)" xlink:href="#path363"/>
 <use transform="matrix(.24227 .014773 -.014773 .24227 436.51 382.6)" xlink:href="#path363"/>
 <use transform="matrix(1.5519 .49138 -.49138 1.5519 25.821 -408.6)" xlink:href="#path363"/>
 <use transform="matrix(1.2215 -.2563 .2563 1.2215 -17.581 58.188)" xlink:href="#path363"/>
 <use transform="matrix(1.0343 .4732 -.4732 1.0343 398.31 -135.34)" xlink:href="#path363"/>
 <use transform="matrix(.85321 .34913 -.34913 .85321 668.15 71.866)" xlink:href="#path363"/>
 <use transform="matrix(1.5824 -.47721 .47721 1.5824 -136.29 180.45)" xlink:href="#path363"/>
 <use transform="matrix(.94042 -.24509 .24509 .94042 155.03 356.97)" xlink:href="#path363"/>
 <use transform="matrix(1.1698 .48048 -.48048 1.1698 -10.3 -173.35)" xlink:href="#path363"/>
 <use transform="matrix(1.2935 -.18545 .18545 1.2935 -190.4 79.782)" xlink:href="#path363"/>
 <use transform="matrix(1.3034 -.37341 .37341 1.3034 -169.96 109.65)" xlink:href="#path363"/>
 <use transform="matrix(1.4859 -.011571 .011571 1.4859 -159.89 -11.856)" xlink:href="#path363"/>
 <use transform="matrix(.83395 .17929 -.17929 .83395 71.887 81.952)" xlink:href="#path363"/>
 <use transform="matrix(1.4511 -.61901 .61901 1.4511 -611.52 229.65)" xlink:href="#path363"/>
 <use transform="matrix(1.5779 .19725 -.19725 1.5779 -548.31 -306.61)" xlink:href="#path363"/>
 <use transform="matrix(1.7736 -.46998 .46998 1.7736 -883.56 -307.41)" xlink:href="#path363"/>
 <use transform="matrix(.73471 .11238 -.11238 .73471 1318 317.34)" xlink:href="#path363"/>
 <use transform="matrix(.8697 -.27348 .27348 .8697 877.94 530.16)" xlink:href="#path363"/>
 <use transform="matrix(.23744 -.099413 .099413 .23744 817.39 720.01)" xlink:href="#path363"/>
 <use transform="matrix(1.3581 -.14351 .14351 1.3581 119.01 208.7)" xlink:href="#path363"/>
 <use transform="matrix(.50197 .14375 -.14375 .50197 -110.09 111.9)" xlink:href="#path363"/>
 <use transform="matrix(1.5299 .099147 -.099147 1.5299 -607.35 -317.85)" xlink:href="#path363"/>
 <use transform="matrix(1.362 .54478 -.54478 1.362 -158.78 -356.52)" xlink:href="#path363"/>
 <use transform="matrix(.12509 .0014534 -.0014534 .12509 188.97 388.19)" xlink:href="#path363"/>
 <use transform="matrix(1.3979 -.35198 .35198 1.3979 -565.54 102.08)" xlink:href="#path363"/>
 <use transform="matrix(.16664 .041897 -.041897 .16664 212.04 370.73)" xlink:href="#path363"/>
 <use transform="matrix(.4244 -.14151 .14151 .4244 422.67 135.72)" xlink:href="#path363"/>
 <use transform="matrix(.013118 .0024666 -.0024666 .013118 832 332.97)" xlink:href="#path363"/>
 <use transform="matrix(1.102 -.50753 .50753 1.102 1.614 155.67)" xlink:href="#path363"/>
 <use transform="matrix(1.089 -.38131 .38131 1.089 -593.47 114.01)" xlink:href="#path363"/>
 <use transform="matrix(.43596 .18525 -.18525 .43596 -244.32 248.18)" xlink:href="#path363"/>
 <use transform="matrix(1.5184 -.1929 .1929 1.5184 -351.9 108.2)" xlink:href="#path363"/>
 <use transform="matrix(.38836 -.074808 .074808 .38836 222.1 476.56)" xlink:href="#path363"/>
 <use transform="matrix(.29236 .021462 -.021462 .29236 465.59 389.75)" xlink:href="#path363"/>
 <use transform="matrix(.98942 .38998 -.38998 .98942 273.07 -36.228)" xlink:href="#path363"/>
 <use transform="matrix(.31149 .095353 -.095353 .31149 541.67 380.3)" xlink:href="#path363"/>
 <use transform="matrix(.89574 -.20861 .20861 .89574 81.189 319.08)" xlink:href="#path363"/>
 <use transform="matrix(.79623 -.12938 .12938 .79623 -155.75 184.61)" xlink:href="#path363"/>
 <use transform="matrix(1.606 -.12264 .12264 1.606 -573.02 -183.86)" xlink:href="#path363"/>
 <use transform="matrix(.87701 -.0099797 .0099797 .87701 -142.36 53.151)" xlink:href="#path363"/>
 <use transform="matrix(.42227 -.12525 .12525 .42227 278.56 371.44)" xlink:href="#path363"/>
 <use transform="matrix(1.0387 -.0092857 .0092857 1.0387 -93.255 132.48)" xlink:href="#path363"/>
 <use transform="matrix(.76289 -.16377 .16377 .76289 6.8132 319.78)" xlink:href="#path363"/>
 <use transform="matrix(1.0856 -.0049271 .0049271 1.0856 118.84 89.781)" xlink:href="#path363"/>
 <use transform="matrix(.079392 -.011333 .011333 .079392 503.74 536.43)" xlink:href="#path363"/>
 <use transform="matrix(.62737 -.017159 .017159 .62737 265.03 334.74)" xlink:href="#path363"/>
 <use transform="matrix(1.4992 -.25719 .25719 1.4992 -248.63 101.65)" xlink:href="#path363"/>
 <use transform="matrix(1.6101 -.37754 .37754 1.6101 -741.99 -221.78)" xlink:href="#path363"/>
 <use transform="matrix(.013302 .0027596 -.0027596 .013302 245.9 283.38)" xlink:href="#path363"/>
 <use transform="matrix(.12086 .0085602 -.0085602 .12086 226.73 191.98)" xlink:href="#path363"/>
 <use transform="matrix(1.2281 -.40358 .40358 1.2281 -220.01 81.239)" xlink:href="#path363"/>
 <use transform="matrix(.52729 .10882 -.10882 .52729 480.26 136.08)" xlink:href="#path363"/>
 <use transform="matrix(.51113 -.20143 .20143 .51113 375.49 398.12)" xlink:href="#path363"/>
 <use transform="matrix(.090348 .010623 -.010623 .090348 579.13 498.56)" xlink:href="#path363"/>
 <use transform="matrix(1.6845 -.39377 .39377 1.6845 -341.96 51.071)" xlink:href="#path363"/>
 <use transform="matrix(.22979 -.062271 .062271 .22979 459.61 415.73)" xlink:href="#path363"/>
 <use transform="matrix(.1237 -.049235 .049235 .1237 529.63 505.87)" xlink:href="#path363"/>
 <use transform="matrix(.3799 -.095223 .095223 .3799 290.98 373.85)" xlink:href="#path363"/>
 <use transform="matrix(.79346 -.0075317 .0075317 .79346 413.42 337.31)" xlink:href="#path363"/>
 <use transform="matrix(1.7214 .61653 -.61653 1.7214 290.35 -344.86)" xlink:href="#path363"/>
 <use transform="matrix(1.8951 .10623 -.10623 1.8951 -116.16 -146.82)" xlink:href="#path363"/>
 <use transform="matrix(.17551 -.068384 .068384 .17551 512.16 573.6)" xlink:href="#path363"/>
 <use transform="matrix(.29986 -.076145 .076145 .29986 341.31 479.97)" xlink:href="#path363"/>
 <use transform="matrix(.37061 -.016056 .016056 .37061 418.04 455.8)" xlink:href="#path363"/>
 <use transform="matrix(.75908 -.20712 .20712 .75908 150.73 405.42)" xlink:href="#path363"/>
 <use transform="matrix(.13354 .0060818 -.0060818 .13354 510.61 480.01)" xlink:href="#path363"/>
 <use transform="matrix(.92886 -.23398 .23398 .92886 85.068 289.02)" xlink:href="#path363"/>
 <use transform="matrix(.40965 .15214 -.15214 .40965 475.6 326.9)" xlink:href="#path363"/>
 <use transform="matrix(1.8443 .058804 -.058804 1.8443 -120.45 -287.51)" xlink:href="#path363"/>
 <use transform="matrix(.36565 -.11396 .11396 .36565 582.94 383.85)" xlink:href="#path363"/>
 <use transform="matrix(.11798 -.01643 .01643 .11798 1059.8 511.99)" xlink:href="#path363"/>
 <use transform="matrix(.2797 .094048 -.094048 .2797 707.36 373.84)" xlink:href="#path363"/>
 <use transform="matrix(.56923 -.10627 .10627 .56923 117.23 337.68)" xlink:href="#path363"/>
 <use transform="matrix(.53938 .11587 -.11587 .53938 293.97 244.26)" xlink:href="#path363"/>
 <use transform="matrix(1.3529 -.57091 .57091 1.3529 -366.54 189.25)" xlink:href="#path363"/>
 <use transform="matrix(1.0282 .13003 -.13003 1.0282 61.478 57.194)" xlink:href="#path363"/>
 <use transform="matrix(1.3334 -.057927 .057927 1.3334 -133.98 14.285)" xlink:href="#path363"/>
 <use transform="matrix(1.748 .56829 -.56829 1.748 -184.1 -482.24)" xlink:href="#path363"/>
 <use transform="matrix(1.4269 .17057 -.17057 1.4269 -255.32 -263.75)" xlink:href="#path363"/>
 <use transform="matrix(1.1988 .11597 -.11597 1.1988 -208.32 -49.381)" xlink:href="#path363"/>
 <use transform="matrix(1.1157 -.35859 .35859 1.1157 -287.59 221.34)" xlink:href="#path363"/>
 <use transform="matrix(.54739 .24669 -.24669 .54739 350.3 205.83)" xlink:href="#path363"/>
 <use transform="matrix(.74354 .25072 -.25072 .74354 306.14 140.39)" xlink:href="#path363"/>
 <use transform="matrix(1.5079 .5865 -.5865 1.5079 37.014 -299.59)" xlink:href="#path363"/>
 <use transform="matrix(.095414 -.012879 .012879 .095414 272.05 580.94)" xlink:href="#path363"/>
 <use transform="matrix(1.6519 .45853 -.45853 1.6519 -235.84 -294.38)" xlink:href="#path363"/>
 <path d="m1920 867.61c-653.4-43.75-1387.7 29.582-1844.2 212.39h1844.2z" fill="#241f31"/>
 <g transform="translate(-1135.2 -157.42)">
  <circle cx="1359.9" cy="350.8" r="72" fill="#9a9996"/>
  <g clip-path="url(#clipPath1681)" fill="#77767b" opacity=".5">
   <circle id="path1438" cx="1356.7" cy="327.56" r="6" fill="#77767b" opacity="1"/>
   <use transform="matrix(1.7517 -.40995 .40995 1.7517 -1112.6 325.94)" xlink:href="#path1438"/>
   <use transform="matrix(.48334 .071982 -.071982 .48334 763.34 132.77)" xlink:href="#path1438"/>
   <use transform="matrix(1.5408 .3554 -.3554 1.5408 -602.43 -578.21)" xlink:href="#path1438"/>
   <use transform="matrix(1.3104 .46297 -.46297 1.3104 -300.68 -661.29)" xlink:href="#path1438"/>
   <use transform="matrix(1.1914 -.0099838 .0099838 1.1914 -289.96 -22.178)" xlink:href="#path1438"/>
   <use transform="matrix(.40343 -.019388 .019388 .40343 794.2 217.78)" xlink:href="#path1438"/>
   <use transform="matrix(.87882 .015499 -.015499 .87882 158.67 -3.2196)" xlink:href="#path1438"/>
   <use transform="matrix(.70164 -.2482 .2482 .70164 295.47 402.62)" xlink:href="#path1438"/>
   <use transform="matrix(.18402 -.060261 .060261 .18402 1063.3 310.23)" xlink:href="#path1438"/>
   <use transform="matrix(1.3817 .064619 -.064619 1.3817 -552.4 -199.35)" xlink:href="#path1438"/>
   <use transform="matrix(.77735 -.34708 .34708 .77735 160.56 554.68)" xlink:href="#path1438"/>
   <use transform="matrix(.25245 -.0039069 .0039069 .25245 1048 241.85)" xlink:href="#path1438"/>
   <use transform="matrix(1.1799 .20362 -.20362 1.1799 -145.49 -361.38)" xlink:href="#path1438"/>
   <use transform="matrix(.093374 -.0036784 .0036784 .093374 1329.2 282.06)" xlink:href="#path1438"/>
   <use transform="matrix(.74251 -.32381 .32381 .74251 312.37 579.41)" xlink:href="#path1438"/>
   <use transform="matrix(.45242 -.12073 .12073 .45242 757.71 407.23)" xlink:href="#path1438"/>
   <use transform="matrix(1.1451 .028283 -.028283 1.1451 -154.58 -12.257)" xlink:href="#path1438"/>
   <use transform="matrix(.97904 .043435 -.043435 .97904 54.628 45.983)" xlink:href="#path1438"/>
  </g>
 </g>
</svg>
